# xmcd
#
# Track frame offsets:
#	150
#	13981
#	31938
#	45513
#	61241
#	76305
#	94682
#	110249
#	124899
#	146058
#	162428
#	174868
#	187297
#	210016
#
# Disc length: 3428 seconds
#
# Revision: 0
# Processed by: cddbd v1.5.2PL0 Copyright (c) Steve Scherf et al.
# Submitted via: dBpowerAMP V4.0
#
DISCID=bd0d620e
DTITLE=Whiskeytown - Pneumonia
DYEAR=1900
DGENRE=
TTITLE0=The Ballad of Carol Lynn
TTITLE1=Don't Wanna Know Why
TTITLE2=Jacksonville Skyline
TTITLE3=Reasons to Lie
TTITLE4=Don't Be Sad
TTITLE5=Sit and Listen to the Rain
TTITLE6=Under Your Breath
TTITLE7=Mirror, Mirror
TTITLE8=Paper Moon
TTITLE9=What the Devil Wanted
TTITLE10=Crazy About you
TTITLE11=My Hometown
TTITLE12=Easy Hearts
TTITLE13=Bar Lights
EXTD=
EXTT0=
EXTT1=
EXTT2=
EXTT3=
EXTT4=
EXTT5=
EXTT6=
EXTT7=
EXTT8=
EXTT9=
EXTT10=
EXTT11=
EXTT12=
EXTT13=
PLAYORDER=
